<?xml version="1.0" encoding="UTF-8" standalone="no" ?>
<!DOCTYPE svg PUBLIC "-//W3C//DTD SVG 1.1//EN" "http://www.w3.org/Graphics/SVG/1.1/DTD/svg11.dtd">
<svg xmlns="http://www.w3.org/2000/svg" xmlns:xlink="http://www.w3.org/1999/xlink" version="1.1" width="1080" height="1080" viewBox="0 0 1080 1080" xml:space="preserve">
<desc>Created with Fabric.js 4.2.0</desc>
<defs>
</defs>
<rect x="0" y="0" width="100%" height="100%" fill="transparent"></rect>
<g transform="matrix(1 0 0 1 540 540)" id="022ea972-580d-41d9-a4b3-fe1eec200f7d"  >
<rect style="stroke: none; stroke-width: 1; stroke-dasharray: none; stroke-linecap: butt; stroke-dashoffset: 0; stroke-linejoin: miter; stroke-miterlimit: 4; fill: rgb(255,255,255); fill-opacity: 0; fill-rule: nonzero; opacity: 1;" vector-effect="non-scaling-stroke"  x="-540" y="-540" rx="0" ry="0" width="1080" height="1080" />
</g>
<g transform="matrix(1 0 0 1 540 540)" id="908608a3-0ab4-41d3-8995-abc07ed3ae42"  >
</g>
<g transform="matrix(0.47 0 0 0.47 540 540)"  >
<g style="" vector-effect="non-scaling-stroke"   >
		<g transform="matrix(1 0 0 1 30.52 -217.58)"  >
<path style="stroke: none; stroke-width: 1; stroke-dasharray: none; stroke-linecap: butt; stroke-dashoffset: 0; stroke-linejoin: miter; stroke-miterlimit: 4; fill: rgb(253,33,79); fill-rule: nonzero; opacity: 1;" vector-effect="non-scaling-stroke"  transform=" translate(-486.62, -238.51)" d="M 807.193 170.092 L 807.193 254.065 C 801.16 243.607 794.664 233.391 787.681 223.459 C 763.245 188.697 733.644 158.102 699.697 132.522 C 665.345 106.63699999999999 627.357 86.50799999999998 586.789 72.695 C 544.832 58.40899999999999 500.89799999999997 51.166 456.212 51.166 C 409.549 51.166 363.78 59.049 320.182 74.597 C 278.047 89.622 238.887 111.44299999999998 203.78900000000002 139.45499999999998 C 169.038 167.19 139.25 200.202 115.25500000000001 237.57399999999998 C 90.811 275.64599999999996 73.06400000000001 317.195 62.50700000000001 361.066 C 55.72400000000001 389.256 73.07700000000001 417.60799999999995 101.26800000000001 424.39099999999996 C 105.39600000000002 425.38399999999996 109.52700000000002 425.85999999999996 113.59300000000002 425.85999999999996 C 137.298 425.85999999999996 158.80300000000003 409.693 164.59300000000002 385.631 C 180.06300000000002 321.33899999999994 217.24400000000003 263.058 269.28700000000003 221.52199999999996 C 295.288 200.77099999999996 324.276 184.61299999999997 355.447 173.49799999999996 C 387.696 161.99799999999996 421.598 156.16699999999997 456.212 156.16699999999997 C 521.884 156.16699999999997 584.23 176.98899999999998 636.509 216.38099999999997 C 671.884 243.03699999999998 701.05 277.542 721.648 316.476 L 663.482 316.476 C 634.4879999999999 316.476 610.982 339.981 610.982 368.976 C 610.982 397.971 634.4879999999999 421.476 663.482 421.476 L 859.693 421.476 C 888.689 421.476 912.193 397.971 912.193 368.976 L 912.193 170.092 C 912.193 141.097 888.689 117.59200000000001 859.693 117.59200000000001 C 830.699 117.592 807.193 141.097 807.193 170.092 z" stroke-linecap="round" />
</g>
		<g transform="matrix(1 0 0 1 -30.52 217.58)"  >
<path style="stroke: none; stroke-width: 1; stroke-dasharray: none; stroke-linecap: butt; stroke-dashoffset: 0; stroke-linejoin: miter; stroke-miterlimit: 4; fill: rgb(253,33,79); fill-rule: nonzero; opacity: 1;" vector-effect="non-scaling-stroke"  transform=" translate(-425.58, -673.68)" d="M 52.5 794.602 C 81.495 794.602 105 771.098 105 742.102 L 105 657.776 C 136.275 712.2139999999999 179.821 758.731 232.654 793.77 C 298.9 837.706 376.071 860.956 455.85 861.024 C 455.894 861.024 455.937 861.028 455.98 861.028 C 456.01500000000004 861.028 456.05100000000004 861.0260000000001 456.086 861.0260000000001 C 456.127 861.0260000000001 456.16900000000004 861.028 456.21000000000004 861.028 C 456.266 861.028 456.319 861.024 456.37600000000003 861.024 C 502.90000000000003 860.979 548.533 853.1 592.009 837.596 C 634.144 822.571 673.304 800.75 708.402 772.739 C 743.154 745.005 772.941 711.991 796.937 674.62 C 821.38 636.548 839.128 594.999 849.6850000000001 551.128 C 856.4680000000001 522.9390000000001 839.115 494.58700000000005 810.923 487.80400000000003 C 782.731 481.021 754.3820000000001 498.374 747.599 526.5640000000001 C 732.128 590.8570000000001 694.947 649.138 642.904 690.6730000000001 C 616.904 711.4230000000001 587.9159999999999 727.5830000000001 556.744 738.6960000000001 C 524.527 750.1840000000002 490.66200000000003 756.0140000000001 456.08700000000005 756.0260000000002 C 396.93300000000005 756.0030000000002 339.74100000000004 738.7970000000001 290.6890000000001 706.2640000000001 C 248.38900000000007 678.2110000000001 214.12700000000007 640.2580000000002 190.68200000000007 595.7190000000002 L 248.71000000000006 595.7190000000002 C 277.7060000000001 595.7190000000002 301.21000000000004 572.2130000000002 301.21000000000004 543.2190000000002 C 301.21000000000004 514.2230000000002 277.70500000000004 490.71900000000016 248.71000000000004 490.71900000000016 L 52.5 490.71900000000016 C 23.505 490.71900000000016 0 514.2230000000002 0 543.2190000000002 L 0 742.1020000000002 C 0 771.098 23.505 794.602 52.5 794.602 z" stroke-linecap="round" />
</g>
</g>
</g>
</svg>